<svg width="26" height="26" viewBox="0 0 26 26" fill="none" xmlns="http://www.w3.org/2000/svg">
<g id="Tokens/u:eye">
<path id="Vector" d="M23.7469 12.5673C21.5585 7.48648 17.4419 4.33398 13.0002 4.33398C8.55853 4.33398 4.44186 7.48648 2.25353 12.5673C2.19388 12.704 2.16309 12.8515 2.16309 13.0007C2.16309 13.1498 2.19388 13.2973 2.25353 13.434C4.44186 18.5148 8.55853 21.6673 13.0002 21.6673C17.4419 21.6673 21.5585 18.5148 23.7469 13.434C23.8065 13.2973 23.8373 13.1498 23.8373 13.0007C23.8373 12.8515 23.8065 12.704 23.7469 12.5673ZM13.0002 19.5007C9.56603 19.5007 6.31603 17.0198 4.44186 13.0007C6.31603 8.98148 9.56603 6.50065 13.0002 6.50065C16.4344 6.50065 19.6844 8.98148 21.5585 13.0007C19.6844 17.0198 16.4344 19.5007 13.0002 19.5007ZM13.0002 8.66732C12.1431 8.66732 11.3053 8.92146 10.5927 9.39762C9.88011 9.87377 9.3247 10.5505 8.99672 11.3424C8.66874 12.1342 8.58292 13.0055 8.75012 13.846C8.91733 14.6866 9.33004 15.4588 9.93607 16.0648C10.5421 16.6708 11.3142 17.0835 12.1548 17.2507C12.9954 17.4179 13.8667 17.3321 14.6585 17.0041C15.4503 16.6761 16.1271 16.1207 16.6032 15.4081C17.0794 14.6955 17.3335 13.8577 17.3335 13.0007C17.3335 11.8514 16.877 10.7492 16.0643 9.93652C15.2517 9.12386 14.1495 8.66732 13.0002 8.66732ZM13.0002 15.1673C12.5717 15.1673 12.1528 15.0402 11.7965 14.8022C11.4402 14.5641 11.1624 14.2257 10.9985 13.8298C10.8345 13.4339 10.7916 12.9982 10.8752 12.578C10.9588 12.1577 11.1651 11.7716 11.4681 11.4686C11.7711 11.1656 12.1572 10.9592 12.5775 10.8756C12.9978 10.792 13.4334 10.8349 13.8293 10.9989C14.2252 11.1629 14.5636 11.4406 14.8017 11.7969C15.0398 12.1532 15.1669 12.5721 15.1669 13.0007C15.1669 13.5753 14.9386 14.1264 14.5323 14.5327C14.1259 14.939 13.5748 15.1673 13.0002 15.1673Z" fill="#FAFAFA"/>
</g>
</svg>
