<svg width="20" height="20" viewBox="0 0 20 20" fill="none" xmlns="http://www.w3.org/2000/svg">
<g id="Tokens/u:question-circle">
<path id="Vector" d="M9.4083 12.741C9.37246 12.7806 9.33906 12.8224 9.3083 12.866C9.27676 12.9125 9.25154 12.9629 9.2333 13.016C9.20927 13.0633 9.19242 13.1138 9.1833 13.166C9.17921 13.2215 9.17921 13.2772 9.1833 13.3327C9.18048 13.442 9.20331 13.5504 9.24996 13.6493C9.28739 13.7528 9.3471 13.8467 9.42487 13.9244C9.50263 14.0022 9.59655 14.0619 9.69996 14.0993C9.79971 14.1434 9.90757 14.1662 10.0166 14.1662C10.1257 14.1662 10.2335 14.1434 10.3333 14.0993C10.4367 14.0619 10.5306 14.0022 10.6084 13.9244C10.6862 13.8467 10.7459 13.7528 10.7833 13.6493C10.8203 13.548 10.8373 13.4405 10.8333 13.3327C10.8339 13.223 10.8129 13.1143 10.7714 13.0128C10.73 12.9112 10.6689 12.8189 10.5916 12.741C10.5142 12.6629 10.422 12.6009 10.3204 12.5586C10.2189 12.5163 10.11 12.4945 9.99996 12.4945C9.88995 12.4945 9.78103 12.5163 9.67948 12.5586C9.57793 12.6009 9.48577 12.6629 9.4083 12.741ZM9.99996 1.66602C8.35179 1.66602 6.74062 2.15476 5.37021 3.07044C3.9998 3.98611 2.9317 5.2876 2.30097 6.81032C1.67024 8.33304 1.50521 10.0086 1.82675 11.6251C2.1483 13.2416 2.94197 14.7265 4.10741 15.8919C5.27284 17.0573 6.7577 17.851 8.37421 18.1726C9.99072 18.4941 11.6663 18.3291 13.189 17.6983C14.7117 17.0676 16.0132 15.9995 16.9289 14.6291C17.8446 13.2587 18.3333 11.6475 18.3333 9.99935C18.3333 8.905 18.1177 7.82137 17.699 6.81032C17.2802 5.79927 16.6663 4.88061 15.8925 4.10679C15.1187 3.33297 14.2 2.71914 13.189 2.30035C12.1779 1.88156 11.0943 1.66602 9.99996 1.66602ZM9.99996 16.666C8.68142 16.666 7.39249 16.275 6.29616 15.5425C5.19983 14.8099 4.34535 13.7687 3.84077 12.5506C3.33618 11.3324 3.20416 9.99195 3.46139 8.69875C3.71863 7.40554 4.35357 6.21765 5.28592 5.2853C6.21827 4.35295 7.40615 3.71802 8.69936 3.46078C9.99257 3.20355 11.333 3.33557 12.5512 3.84015C13.7694 4.34474 14.8105 5.19922 15.5431 6.29555C16.2756 7.39188 16.6666 8.68081 16.6666 9.99935C16.6666 11.7675 15.9643 13.4632 14.714 14.7134C13.4638 15.9636 11.7681 16.666 9.99996 16.666ZM9.99996 5.83268C9.56085 5.8324 9.12941 5.94778 8.74905 6.16722C8.3687 6.38665 8.05285 6.7024 7.8333 7.08268C7.773 7.17753 7.73252 7.2836 7.71427 7.3945C7.69603 7.5054 7.70041 7.61884 7.72715 7.728C7.75389 7.83717 7.80244 7.9398 7.86987 8.02971C7.9373 8.11963 8.02222 8.19497 8.11952 8.25122C8.21683 8.30747 8.3245 8.34345 8.43607 8.357C8.54764 8.37055 8.6608 8.36139 8.76874 8.33008C8.87668 8.29877 8.97717 8.24594 9.06417 8.17478C9.15116 8.10362 9.22287 8.0156 9.27496 7.91602C9.34838 7.78885 9.4541 7.68333 9.58142 7.61016C9.70873 7.537 9.85312 7.49877 9.99996 7.49935C10.221 7.49935 10.4329 7.58715 10.5892 7.74343C10.7455 7.89971 10.8333 8.11167 10.8333 8.33268C10.8333 8.5537 10.7455 8.76566 10.5892 8.92194C10.4329 9.07822 10.221 9.16602 9.99996 9.16602C9.77895 9.16602 9.56699 9.25381 9.41071 9.41009C9.25443 9.56637 9.16663 9.77834 9.16663 9.99935V10.8327C9.16663 11.0537 9.25443 11.2657 9.41071 11.4219C9.56699 11.5782 9.77895 11.666 9.99996 11.666C10.221 11.666 10.4329 11.5782 10.5892 11.4219C10.7455 11.2657 10.8333 11.0537 10.8333 10.8327V10.6827C11.3844 10.4827 11.8478 10.0954 12.1423 9.58841C12.4368 9.08144 12.5437 8.48709 12.4445 7.90926C12.3452 7.33142 12.046 6.80686 11.5991 6.42728C11.1523 6.04769 10.5862 5.83723 9.99996 5.83268Z" fill="#FAFAFA"/>
</g>
</svg>
