<svg width="20" height="20" viewBox="0 0 20 20" fill="none" xmlns="http://www.w3.org/2000/svg">
<g id="Tokens/u:comment-dots">
<path id="Vector" d="M6.66668 9.16602C6.50186 9.16602 6.34074 9.21489 6.2037 9.30646C6.06666 9.39803 5.95985 9.52817 5.89678 9.68045C5.8337 9.83272 5.8172 10.0003 5.84936 10.1619C5.88151 10.3236 5.96088 10.4721 6.07742 10.5886C6.19397 10.7051 6.34245 10.7845 6.5041 10.8167C6.66575 10.8488 6.83331 10.8323 6.98558 10.7692C7.13785 10.7062 7.268 10.5994 7.35957 10.4623C7.45114 10.3253 7.50001 10.1642 7.50001 9.99935C7.50001 9.77833 7.41221 9.56637 7.25593 9.41009C7.09965 9.25381 6.88769 9.16602 6.66668 9.16602ZM10 9.16602C9.83519 9.16602 9.67408 9.21489 9.53703 9.30646C9.39999 9.39803 9.29318 9.52817 9.23011 9.68045C9.16704 9.83272 9.15054 10.0003 9.18269 10.1619C9.21484 10.3236 9.29421 10.4721 9.41076 10.5886C9.5273 10.7051 9.67578 10.7845 9.83744 10.8167C9.99909 10.8488 10.1666 10.8323 10.3189 10.7692C10.4712 10.7062 10.6013 10.5994 10.6929 10.4623C10.7845 10.3253 10.8333 10.1642 10.8333 9.99935C10.8333 9.77833 10.7455 9.56637 10.5893 9.41009C10.433 9.25381 10.221 9.16602 10 9.16602ZM13.3333 9.16602C13.1685 9.16602 13.0074 9.21489 12.8704 9.30646C12.7333 9.39803 12.6265 9.52817 12.5634 9.68045C12.5004 9.83272 12.4839 10.0003 12.516 10.1619C12.5482 10.3236 12.6275 10.4721 12.7441 10.5886C12.8606 10.7051 13.0091 10.7845 13.1708 10.8167C13.3324 10.8488 13.5 10.8323 13.6522 10.7692C13.8045 10.7062 13.9347 10.5994 14.0262 10.4623C14.1178 10.3253 14.1667 10.1642 14.1667 9.99935C14.1667 9.77833 14.0789 9.56637 13.9226 9.41009C13.7663 9.25381 13.5544 9.16602 13.3333 9.16602ZM10 1.66602C8.90566 1.66602 7.82203 1.88156 6.81098 2.30035C5.79993 2.71914 4.88128 3.33297 4.10745 4.10679C2.54465 5.6696 1.66668 7.78921 1.66668 9.99935C1.65939 11.9236 2.32567 13.7898 3.55001 15.2743L1.88334 16.941C1.76771 17.0582 1.68938 17.207 1.65824 17.3687C1.62709 17.5303 1.64453 17.6976 1.70834 17.8493C1.77756 17.9993 1.88976 18.1253 2.03072 18.2113C2.17167 18.2974 2.33501 18.3396 2.50001 18.3327H10C12.2101 18.3327 14.3298 17.4547 15.8926 15.8919C17.4554 14.3291 18.3333 12.2095 18.3333 9.99935C18.3333 7.78921 17.4554 5.6696 15.8926 4.10679C14.3298 2.54399 12.2101 1.66602 10 1.66602ZM10 16.666H4.50834L5.28334 15.891C5.36208 15.8138 5.42473 15.7218 5.46764 15.6202C5.51055 15.5187 5.53289 15.4096 5.53334 15.2993C5.53021 15.0795 5.44036 14.8699 5.28334 14.716C4.19217 13.626 3.51266 12.1915 3.36059 10.6567C3.20852 9.12189 3.5933 7.58185 4.44937 6.29895C5.30544 5.01605 6.57984 4.06965 8.05544 3.62099C9.53104 3.17234 11.1166 3.24919 12.5419 3.83844C13.9672 4.4277 15.1441 5.49291 15.872 6.85259C16.6 8.21227 16.8341 9.7823 16.5343 11.2952C16.2345 12.8081 15.4194 14.1702 14.228 15.1495C13.0365 16.1289 11.5423 16.6648 10 16.666Z" fill="#FAFAFA"/>
</g>
</svg>
