<svg width="20" height="21" viewBox="0 0 20 21" fill="none" xmlns="http://www.w3.org/2000/svg">
<g id="Tokens/u:angle-right-b">
<path id="Vector" d="M12.9499 9.90796L8.23328 5.19962C8.15581 5.12152 8.06364 5.05952 7.96209 5.01721C7.86054 4.97491 7.75162 4.95312 7.64161 4.95312C7.5316 4.95312 7.42268 4.97491 7.32113 5.01721C7.21958 5.05952 7.12741 5.12152 7.04994 5.19962C6.89474 5.35576 6.80762 5.56697 6.80762 5.78712C6.80762 6.00728 6.89474 6.21849 7.04994 6.37462L11.1749 10.5413L7.04994 14.6663C6.89474 14.8224 6.80762 15.0336 6.80762 15.2538C6.80762 15.4739 6.89474 15.6852 7.04994 15.8413C7.12712 15.92 7.21916 15.9827 7.32072 16.0256C7.42229 16.0685 7.53135 16.0908 7.64161 16.0913C7.75187 16.0908 7.86094 16.0685 7.9625 16.0256C8.06406 15.9827 8.1561 15.92 8.23328 15.8413L12.9499 11.133C13.0345 11.0549 13.102 10.9602 13.1482 10.8548C13.1944 10.7494 13.2182 10.6355 13.2182 10.5205C13.2182 10.4054 13.1944 10.2915 13.1482 10.1861C13.102 10.0807 13.0345 9.98599 12.9499 9.90796Z" fill="#737373"/>
</g>
</svg>
