<svg width="24" height="24" viewBox="0 0 24 24" fill="none" xmlns="http://www.w3.org/2000/svg">
<g id="heroicons-mini/fire">
<path id="Subtract" fill-rule="evenodd" clip-rule="evenodd" d="M16.1995 5.92593C20.2172 8.24553 21.5938 13.3829 19.2742 17.4005C16.9546 21.4182 11.8172 22.7948 7.79955 20.4752C3.78189 18.1556 2.40534 13.0182 4.72493 9.00055C4.92701 8.65054 5.15047 8.32058 5.39272 8.01135C5.63465 7.70253 6.10145 7.74922 6.34447 8.0572C6.67775 8.47957 7.05733 8.8637 7.47556 9.20195C7.87473 9.52478 8.41966 9.1441 8.40355 8.63098C8.40114 8.55453 8.39993 8.47778 8.39993 8.40074C8.39993 7.2985 8.64762 6.2541 9.09037 5.32017C9.73015 3.97064 10.7772 2.85178 12.0729 2.12236C12.3692 1.9555 12.7334 2.10342 12.8852 2.40779C13.5956 3.83203 14.718 5.07054 16.1995 5.92593ZM16.7999 14.4008C16.7999 17.0517 14.6509 19.2008 11.9999 19.2008C9.70399 19.2008 7.77482 17.5227 7.3081 15.3828C7.19582 14.868 7.8355 14.6107 8.28465 14.8861C8.86788 15.2438 9.52467 15.4765 10.2064 15.5629C10.5695 15.609 10.8432 15.2755 10.8177 14.9103C10.8059 14.742 10.7999 14.5721 10.7999 14.4008C10.7999 12.6885 11.3976 11.1158 12.3958 9.88001C12.5204 9.72578 12.7187 9.65008 12.9133 9.68758C15.1275 10.1141 16.7999 12.0621 16.7999 14.4008Z" fill="#FF6838"/>
</g>
</svg>
