<svg width="20" height="20" viewBox="0 0 20 20" fill="none" xmlns="http://www.w3.org/2000/svg">
<g id="Tokens/u:lock-alt">
<path id="Vector" d="M10 10.8327C9.77903 10.8327 9.56707 10.9205 9.41079 11.0768C9.2545 11.233 9.16671 11.445 9.16671 11.666V14.166C9.16671 14.387 9.2545 14.599 9.41079 14.7553C9.56707 14.9116 9.77903 14.9993 10 14.9993C10.2211 14.9993 10.433 14.9116 10.5893 14.7553C10.7456 14.599 10.8334 14.387 10.8334 14.166V11.666C10.8334 11.445 10.7456 11.233 10.5893 11.0768C10.433 10.9205 10.2211 10.8327 10 10.8327ZM14.1667 7.49935V5.83268C14.1667 4.72761 13.7277 3.66781 12.9463 2.8864C12.1649 2.105 11.1051 1.66602 10 1.66602C8.89497 1.66602 7.83516 2.105 7.05376 2.8864C6.27236 3.66781 5.83337 4.72761 5.83337 5.83268V7.49935C5.17033 7.49935 4.53445 7.76274 4.06561 8.23158C3.59677 8.70042 3.33337 9.33631 3.33337 9.99935V15.8327C3.33337 16.4957 3.59677 17.1316 4.06561 17.6005C4.53445 18.0693 5.17033 18.3327 5.83337 18.3327H14.1667C14.8297 18.3327 15.4656 18.0693 15.9345 17.6005C16.4033 17.1316 16.6667 16.4957 16.6667 15.8327V9.99935C16.6667 9.33631 16.4033 8.70042 15.9345 8.23158C15.4656 7.76274 14.8297 7.49935 14.1667 7.49935ZM7.50004 5.83268C7.50004 5.16964 7.76343 4.53376 8.23227 4.06492C8.70111 3.59607 9.337 3.33268 10 3.33268C10.6631 3.33268 11.299 3.59607 11.7678 4.06492C12.2366 4.53376 12.5 5.16964 12.5 5.83268V7.49935H7.50004V5.83268ZM15 15.8327C15 16.0537 14.9122 16.2657 14.756 16.4219C14.5997 16.5782 14.3877 16.666 14.1667 16.666H5.83337C5.61236 16.666 5.4004 16.5782 5.24412 16.4219C5.08784 16.2657 5.00004 16.0537 5.00004 15.8327V9.99935C5.00004 9.77834 5.08784 9.56637 5.24412 9.41009C5.4004 9.25381 5.61236 9.16602 5.83337 9.16602H14.1667C14.3877 9.16602 14.5997 9.25381 14.756 9.41009C14.9122 9.56637 15 9.77834 15 9.99935V15.8327Z" fill="#FAFAFA"/>
</g>
</svg>
