<svg width="19" height="19" viewBox="0 0 19 19" fill="none" xmlns="http://www.w3.org/2000/svg">
<g id="Tokens/u:angle-down">
<path id="Vector" d="M13.2498 7.37825C13.1093 7.23856 12.9192 7.16016 12.721 7.16016C12.5229 7.16016 12.3328 7.23856 12.1923 7.37825L9.49978 10.0333L6.84478 7.37825C6.70426 7.23856 6.51417 7.16016 6.31603 7.16016C6.11789 7.16016 5.9278 7.23856 5.78728 7.37825C5.71698 7.44797 5.66119 7.53092 5.62311 7.62232C5.58503 7.71371 5.56543 7.81174 5.56543 7.91075C5.56543 8.00976 5.58503 8.10779 5.62311 8.19918C5.66119 8.29058 5.71698 8.37353 5.78728 8.44325L8.96728 11.6233C9.037 11.6935 9.11995 11.7493 9.21135 11.7874C9.30274 11.8255 9.40077 11.8451 9.49978 11.8451C9.59879 11.8451 9.69682 11.8255 9.78821 11.7874C9.87961 11.7493 9.96256 11.6935 10.0323 11.6233L13.2498 8.44325C13.3201 8.37353 13.3759 8.29058 13.4139 8.19918C13.452 8.10779 13.4716 8.00976 13.4716 7.91075C13.4716 7.81174 13.452 7.71371 13.4139 7.62232C13.3759 7.53092 13.3201 7.44797 13.2498 7.37825Z" fill="#888891"/>
</g>
</svg>
