<svg width="17" height="17" viewBox="0 0 17 17" fill="none" xmlns="http://www.w3.org/2000/svg">
<g id="Group">
<path id="Vector" d="M8.5 16.5C12.9183 16.5 16.5 12.9183 16.5 8.5C16.5 4.08172 12.9183 0.5 8.5 0.5C4.08172 0.5 0.5 4.08172 0.5 8.5C0.5 12.9183 4.08172 16.5 8.5 16.5Z" fill="#F7931A"/>
<path id="Vector_2" d="M12.016 7.51C12.173 6.462 11.3745 5.8985 10.2835 5.5225L10.6375 4.1025L9.7735 3.8875L9.4285 5.27C9.2015 5.213 8.9685 5.16 8.736 5.107L9.0835 3.7155L8.2195 3.5L7.8655 4.9195C7.6775 4.8765 7.4925 4.8345 7.3135 4.7895L7.3145 4.785L6.1225 4.4875L5.8925 5.4105C5.8925 5.4105 6.534 5.5575 6.5205 5.5665C6.8705 5.654 6.9335 5.8855 6.923 6.0695L6.52 7.687C6.544 7.693 6.575 7.702 6.61 7.7155L6.5185 7.693L5.9535 9.959C5.9105 10.065 5.802 10.2245 5.557 10.164C5.566 10.1765 4.929 10.0075 4.929 10.0075L4.5 10.9965L5.625 11.277C5.834 11.3295 6.039 11.3845 6.2405 11.436L5.883 12.872L6.7465 13.087L7.1005 11.667C7.3365 11.7305 7.5655 11.7895 7.7895 11.8455L7.4365 13.2595L8.3005 13.4745L8.658 12.0415C10.132 12.3205 11.24 12.208 11.7065 10.875C12.0825 9.802 11.688 9.1825 10.9125 8.779C11.4775 8.649 11.9025 8.2775 12.016 7.51ZM10.041 10.279C9.7745 11.3525 7.967 10.772 7.381 10.6265L7.856 8.724C8.442 8.8705 10.3205 9.16 10.041 10.279ZM10.3085 7.4945C10.065 8.471 8.561 7.9745 8.0735 7.853L8.5035 6.128C8.991 6.2495 10.5625 6.476 10.3085 7.4945Z" fill="white"/>
</g>
</svg>
