<svg width="17" height="17" viewBox="0 0 17 17" fill="none" xmlns="http://www.w3.org/2000/svg">
<g id="Group">
<path id="Vector" d="M8.5 16.5C12.9183 16.5 16.5 12.9183 16.5 8.5C16.5 4.08172 12.9183 0.5 8.5 0.5C4.08172 0.5 0.5 4.08172 0.5 8.5C0.5 12.9183 4.08172 16.5 8.5 16.5Z" fill="#627EEA"/>
<g id="Group_2">
<path id="Vector_2" d="M8.5 2.5V6.935L12.2485 8.61L8.5 2.5Z" fill="white" fill-opacity="0.602"/>
<path id="Vector_3" d="M8.749 2.5L5 8.61L8.749 6.935V2.5Z" fill="white"/>
<path id="Vector_4" d="M8.5 11.676V14.6895L12.251 9.5L8.5 11.676Z" fill="white" fill-opacity="0.602"/>
<path id="Vector_5" d="M8.749 14.6895V11.6755L5 9.5L8.749 14.6895Z" fill="white"/>
<path id="Vector_6" d="M8.5 10.8505L12.2485 8.674L8.5 7V10.8505Z" fill="white" fill-opacity="0.2"/>
<path id="Vector_7" d="M5 8.674L8.749 10.8505V7L5 8.674Z" fill="white" fill-opacity="0.602"/>
</g>
</g>
</svg>
