<svg width="20" height="21" viewBox="0 0 20 21" fill="none" xmlns="http://www.w3.org/2000/svg">
<g id="Tokens/u:palette">
<path id="Vector" d="M6.18329 13.4506C6.02808 13.6068 5.94096 13.818 5.94096 14.0381C5.94096 14.2583 6.02808 14.4695 6.18329 14.6256C6.26076 14.7038 6.35293 14.7657 6.45448 14.8081C6.55603 14.8504 6.66495 14.8721 6.77496 14.8721C6.88497 14.8721 6.99389 14.8504 7.09544 14.8081C7.19699 14.7657 7.28915 14.7038 7.36662 14.6256C7.52183 14.4695 7.60895 14.2583 7.60895 14.0381C7.60895 13.818 7.52183 13.6068 7.36662 13.4506C7.28915 13.3725 7.19699 13.3105 7.09544 13.2682C6.99389 13.2259 6.88497 13.2041 6.77496 13.2041C6.66495 13.2041 6.55603 13.2259 6.45448 13.2682C6.35293 13.3105 6.26076 13.3725 6.18329 13.4506ZM6.18329 6.37564C6.02808 6.53178 5.94096 6.74299 5.94096 6.96314C5.94096 7.1833 6.02808 7.39451 6.18329 7.55064C6.26076 7.62875 6.35293 7.69075 6.45448 7.73305C6.55603 7.77536 6.66495 7.79714 6.77496 7.79714C6.88497 7.79714 6.99389 7.77536 7.09544 7.73305C7.19699 7.69075 7.28915 7.62875 7.36662 7.55064C7.52183 7.39451 7.60895 7.1833 7.60895 6.96314C7.60895 6.74299 7.52183 6.53178 7.36662 6.37564C7.28915 6.29754 7.19699 6.23554 7.09544 6.19323C6.99389 6.15093 6.88497 6.12915 6.77496 6.12915C6.66495 6.12915 6.55603 6.15093 6.45448 6.19323C6.35293 6.23554 6.26076 6.29754 6.18329 6.37564ZM10.3083 14.709C10.1435 14.709 9.98236 14.7579 9.84531 14.8494C9.70827 14.941 9.60146 15.0711 9.53839 15.2234C9.47532 15.3757 9.45881 15.5432 9.49097 15.7049C9.52312 15.8665 9.60249 16.015 9.71903 16.1316C9.83558 16.2481 9.98406 16.3275 10.1457 16.3596C10.3074 16.3918 10.4749 16.3753 10.6272 16.3122C10.7795 16.2491 10.9096 16.1423 11.0012 16.0053C11.0927 15.8682 11.1416 15.7071 11.1416 15.5423C11.1473 15.4294 11.1299 15.3166 11.0906 15.2106C11.0512 15.1046 10.9907 15.0078 10.9128 14.9259C10.8348 14.8441 10.741 14.7789 10.6371 14.7345C10.5332 14.69 10.4213 14.6672 10.3083 14.6673V14.709ZM5.30829 9.70898C5.14347 9.70898 4.98236 9.75785 4.84531 9.84942C4.70827 9.94099 4.60146 10.0711 4.53839 10.2234C4.47532 10.3757 4.45881 10.5432 4.49097 10.7049C4.52312 10.8665 4.60249 11.015 4.71903 11.1316C4.83558 11.2481 4.98406 11.3275 5.14571 11.3596C5.30736 11.3918 5.47492 11.3753 5.62719 11.3122C5.77946 11.2491 5.90961 11.1423 6.00118 11.0053C6.09275 10.8682 6.14162 10.7071 6.14162 10.5423C6.14727 10.4294 6.1299 10.3166 6.09056 10.2106C6.05122 10.1046 5.99073 10.0078 5.91278 9.92593C5.83483 9.84408 5.74104 9.77894 5.63712 9.73448C5.5332 9.69002 5.42132 9.66717 5.30829 9.66731V9.70898ZM10.3083 4.70898C10.1435 4.70898 9.98236 4.75785 9.84531 4.84942C9.70827 4.94099 9.60146 5.07114 9.53839 5.22341C9.47532 5.37568 9.45881 5.54324 9.49097 5.70489C9.52312 5.86654 9.60249 6.01502 9.71903 6.13157C9.83558 6.24811 9.98406 6.32748 10.1457 6.35963C10.3074 6.39179 10.4749 6.37528 10.6272 6.31221C10.7795 6.24914 10.9096 6.14233 11.0012 6.00529C11.0927 5.86825 11.1416 5.70713 11.1416 5.54231C11.1473 5.42942 11.1299 5.31656 11.0906 5.2106C11.0512 5.10463 10.9907 5.00778 10.9128 4.92593C10.8348 4.84408 10.741 4.77894 10.6371 4.73448C10.5332 4.69002 10.4213 4.66717 10.3083 4.66731V4.70898ZM13.2583 6.41731C13.1412 6.53366 13.0614 6.68213 13.0288 6.84392C12.9963 7.0057 13.0125 7.17351 13.0754 7.32608C13.1383 7.47864 13.2452 7.60908 13.3823 7.70086C13.5194 7.79265 13.6808 7.84165 13.8458 7.84165C14.0108 7.84165 14.1721 7.79265 14.3093 7.70086C14.4464 7.60908 14.5532 7.47864 14.6162 7.32608C14.6791 7.17351 14.6953 7.0057 14.6627 6.84392C14.6302 6.68213 14.5503 6.53366 14.4333 6.41731C14.2827 6.25644 14.0746 6.16174 13.8544 6.15394C13.6342 6.14613 13.4199 6.22584 13.2583 6.37564V6.41731ZM18.5083 6.41731C17.7464 4.89423 16.5753 3.61349 15.1263 2.71873C13.6773 1.82396 12.0076 1.35055 10.3046 1.35156C8.60161 1.35258 6.93255 1.82799 5.48461 2.72449C4.03666 3.62099 2.86708 4.90312 2.10702 6.42711C1.34696 7.95111 1.02647 9.6567 1.18149 11.3526C1.33651 13.0486 1.96092 14.6678 2.98468 16.0288C4.00844 17.3897 5.39109 18.4385 6.97757 19.0577C8.56406 19.6768 10.2916 19.8417 11.9666 19.534C12.3878 19.4547 12.789 19.2923 13.1467 19.0562C13.5044 18.8201 13.8115 18.5151 14.05 18.159C14.3069 17.7718 14.4842 17.3373 14.5715 16.8809C14.6588 16.4245 14.6543 15.9553 14.5583 15.5006C14.5058 15.2259 14.4779 14.947 14.475 14.6673C14.4786 13.8598 14.7168 13.0707 15.1607 12.3961C15.6045 11.7214 16.2348 11.1903 16.975 10.8673C17.374 10.6886 17.7322 10.4301 18.0275 10.1076C18.3227 9.78511 18.5488 9.40554 18.6916 8.99231C18.8361 8.57005 18.8944 8.12307 18.8629 7.67788C18.8314 7.23269 18.7108 6.79836 18.5083 6.40064V6.41731ZM17.0916 8.45064C17.0205 8.65008 16.9101 8.83322 16.767 8.98924C16.6238 9.14526 16.4509 9.27098 16.2583 9.35898C15.2333 9.81781 14.3625 10.5628 13.7505 11.5044C13.1385 12.446 12.8114 13.5443 12.8083 14.6673C12.8095 15.059 12.8486 15.4498 12.925 15.834C12.9759 16.0688 12.9792 16.3115 12.9348 16.5476C12.8905 16.7838 12.7993 17.0086 12.6666 17.209C12.5544 17.3843 12.4067 17.5342 12.233 17.649C12.0594 17.7638 11.8636 17.841 11.6583 17.8756C11.2132 17.9593 10.7612 18.0011 10.3083 18.0006C9.30343 18.0011 8.30872 17.7997 7.38323 17.4083C6.45773 17.0168 5.62034 16.4434 4.92076 15.7221C4.22118 15.0008 3.67369 14.1462 3.3108 13.2091C2.94791 12.2721 2.77703 11.2717 2.80829 10.2673C2.87297 8.39464 3.63246 6.61311 4.93881 5.26978C6.24517 3.92645 8.00482 3.11755 9.87496 3.00064H10.3C11.6964 3.00099 13.065 3.39122 14.2517 4.12737C15.4384 4.86351 16.396 5.91635 17.0166 7.16731C17.2077 7.56313 17.2346 8.01838 17.0916 8.43398V8.45064ZM10.3083 9.66731C10.1435 9.66731 9.98236 9.71618 9.84531 9.80775C9.70827 9.89932 9.60146 10.0295 9.53839 10.1817C9.47532 10.334 9.45881 10.5016 9.49097 10.6632C9.52312 10.8249 9.60249 10.9734 9.71903 11.0899C9.83558 11.2064 9.98406 11.2858 10.1457 11.318C10.3074 11.3501 10.4749 11.3336 10.6272 11.2705C10.7795 11.2075 10.9096 11.1007 11.0012 10.9636C11.0927 10.8266 11.1416 10.6655 11.1416 10.5006C11.1416 10.2796 11.0538 10.0677 10.8975 9.91139C10.7413 9.75511 10.5293 9.66731 10.3083 9.66731Z" fill="#FAFAFA"/>
</g>
</svg>
