<svg width="20" height="21" viewBox="0 0 20 21" fill="none" xmlns="http://www.w3.org/2000/svg">
<g id="heroicons-mini/viewfinder-dot">
<g id="Union">
<path d="M4.25 2.5C3.00736 2.5 2 3.50736 2 4.75V6.75C2 7.16421 2.33579 7.5 2.75 7.5C3.16421 7.5 3.5 7.16421 3.5 6.75V4.75C3.5 4.33579 3.83579 4 4.25 4H6.25C6.66421 4 7 3.66421 7 3.25C7 2.83579 6.66421 2.5 6.25 2.5H4.25Z" fill="#FAFAFA"/>
<path d="M13.75 2.5C13.3358 2.5 13 2.83579 13 3.25C13 3.66421 13.3358 4 13.75 4H15.75C16.1642 4 16.5 4.33579 16.5 4.75V6.75C16.5 7.16421 16.8358 7.5 17.25 7.5C17.6642 7.5 18 7.16421 18 6.75V4.75C18 3.50736 16.9926 2.5 15.75 2.5H13.75Z" fill="#FAFAFA"/>
<path d="M3.5 14.25C3.5 13.8358 3.16421 13.5 2.75 13.5C2.33579 13.5 2 13.8358 2 14.25V16.25C2 17.4926 3.00736 18.5 4.25 18.5H6.25C6.66421 18.5 7 18.1642 7 17.75C7 17.3358 6.66421 17 6.25 17H4.25C3.83579 17 3.5 16.6642 3.5 16.25V14.25Z" fill="#FAFAFA"/>
<path d="M18 14.25C18 13.8358 17.6642 13.5 17.25 13.5C16.8358 13.5 16.5 13.8358 16.5 14.25V16.25C16.5 16.6642 16.1642 17 15.75 17H13.75C13.3358 17 13 17.3358 13 17.75C13 18.1642 13.3358 18.5 13.75 18.5H15.75C16.9926 18.5 18 17.4926 18 16.25V14.25Z" fill="#FAFAFA"/>
<path d="M7 10.5C7 8.84315 8.34315 7.5 10 7.5C11.6569 7.5 13 8.84315 13 10.5C13 12.1569 11.6569 13.5 10 13.5C8.34315 13.5 7 12.1569 7 10.5Z" fill="#FAFAFA"/>
</g>
</g>
</svg>
