<svg width="20" height="21" viewBox="0 0 20 21" fill="none" xmlns="http://www.w3.org/2000/svg">
<g id="heroicons-mini/language">
<g id="Union">
<path d="M7.75009 3.25C7.75009 2.83579 7.4143 2.5 7.00009 2.5C6.58587 2.5 6.25009 2.83579 6.25009 3.25V4.50842C5.03323 4.53578 3.8325 4.62954 2.65142 4.78627C2.24081 4.84076 1.95211 5.2178 2.0066 5.62841C2.06109 6.03902 2.43813 6.32772 2.84875 6.27323C4.20658 6.09304 5.59228 6 7.00009 6C7.57065 6 8.13758 6.01528 8.70048 6.04546C8.2826 7.45686 7.70916 8.80168 6.99996 10.06C6.62755 9.39925 6.29259 8.71466 5.99793 8.00912C5.8383 7.6269 5.39905 7.44646 5.01683 7.60608C4.63461 7.76571 4.45416 8.20497 4.61379 8.58718C5.03667 9.59975 5.5365 10.572 6.10593 11.4967C5.03656 13.0598 3.74539 14.4596 2.27753 15.6506C1.95588 15.9116 1.9067 16.3839 2.16769 16.7055C2.42867 17.0272 2.90099 17.0764 3.22264 16.8154C4.64811 15.6588 5.91919 14.3189 6.99996 12.8314C7.0954 12.9628 7.19233 13.093 7.29071 13.222C7.54187 13.5514 8.01249 13.6148 8.34187 13.3637C8.67125 13.1125 8.73467 12.6419 8.48351 12.3125C8.2802 12.0459 8.08361 11.7739 7.894 11.4967C8.90466 9.85554 9.69602 8.06455 10.227 6.16453C10.5365 6.19627 10.8447 6.23253 11.1514 6.27323C11.562 6.32772 11.9391 6.03902 11.9936 5.62841C12.0481 5.2178 11.7594 4.84076 11.3487 4.78627C10.8114 4.71496 10.27 4.65669 9.72489 4.61178C9.07179 4.55797 8.41333 4.52333 7.75009 4.50842V3.25Z" fill="#FAFAFA"/>
<path fill-rule="evenodd" clip-rule="evenodd" d="M13.0002 8.5C13.2842 8.5 13.5439 8.6605 13.671 8.91459L17.921 17.4146C18.1062 17.7851 17.9561 18.2356 17.5856 18.4208C17.2151 18.6061 16.7646 18.4559 16.5793 18.0854L15.7866 16.5H10.2137L9.42098 18.0854C9.23574 18.4559 8.78524 18.6061 8.41475 18.4208C8.04427 18.2356 7.8941 17.7851 8.07934 17.4146L12.3293 8.91459C12.4564 8.6605 12.7161 8.5 13.0002 8.5ZM15.0366 15L13.0002 10.9271L10.9637 15H15.0366Z" fill="#FAFAFA"/>
</g>
</g>
</svg>
