<svg width="20" height="21" viewBox="0 0 20 21" fill="none" xmlns="http://www.w3.org/2000/svg">
<g id="heroicons-solid/circle-stack">
<g id="Vector">
<path d="M17.5 5.8125C17.5 8.05616 14.1421 9.875 10 9.875C5.85786 9.875 2.5 8.05616 2.5 5.8125C2.5 3.56884 5.85786 1.75 10 1.75C14.1421 1.75 17.5 3.56884 17.5 5.8125Z" fill="#FAFAFA"/>
<path d="M10 11.125C12.2377 11.125 14.3254 10.6364 15.8987 9.78424C16.4736 9.47278 17.0206 9.08695 17.4789 8.63062C17.4929 8.73192 17.5 8.83426 17.5 8.9375C17.5 11.1812 14.1421 13 10 13C5.85786 13 2.5 11.1812 2.5 8.9375C2.5 8.83426 2.50711 8.73192 2.52108 8.63062C2.97936 9.08695 3.52635 9.47278 4.10135 9.78424C5.67457 10.6364 7.76234 11.125 10 11.125Z" fill="#FAFAFA"/>
<path d="M10 14.25C12.2377 14.25 14.3254 13.7614 15.8987 12.9092C16.4736 12.5978 17.0206 12.2119 17.4789 11.7556C17.4929 11.8569 17.5 11.9593 17.5 12.0625C17.5 14.3062 14.1421 16.125 10 16.125C5.85786 16.125 2.5 14.3062 2.5 12.0625C2.5 11.9593 2.50711 11.8569 2.52108 11.7556C2.97936 12.2119 3.52635 12.5978 4.10135 12.9092C5.67457 13.7614 7.76234 14.25 10 14.25Z" fill="#FAFAFA"/>
<path d="M10 17.375C12.2377 17.375 14.3254 16.8864 15.8987 16.0342C16.4736 15.7228 17.0206 15.3369 17.4789 14.8806C17.4929 14.9819 17.5 15.0843 17.5 15.1875C17.5 17.4312 14.1421 19.25 10 19.25C5.85786 19.25 2.5 17.4312 2.5 15.1875C2.5 15.0843 2.50711 14.9819 2.52108 14.8806C2.97936 15.3369 3.52635 15.7228 4.10135 16.0342C5.67457 16.8864 7.76234 17.375 10 17.375Z" fill="#FAFAFA"/>
</g>
</g>
</svg>
