<svg width="20" height="21" viewBox="0 0 20 21" fill="none" xmlns="http://www.w3.org/2000/svg">
<g id="Tokens/u:moon">
<path id="Vector" d="M18.0333 11.3331C17.913 11.2336 17.7672 11.17 17.6125 11.1493C17.4578 11.1287 17.3005 11.1519 17.1583 11.2164C16.2771 11.6196 15.3191 11.8272 14.35 11.8247C12.5574 11.8226 10.8383 11.1118 9.56761 9.84731C8.29691 8.58286 7.57765 6.86731 7.56666 5.07472C7.57046 4.51291 7.64038 3.95351 7.77499 3.40805C7.80356 3.26267 7.79284 3.1123 7.74395 2.97243C7.69507 2.83257 7.60977 2.70826 7.49686 2.61233C7.38395 2.5164 7.2475 2.4523 7.10157 2.42665C6.95565 2.401 6.80552 2.41471 6.66666 2.46639C5.36026 3.05381 4.22463 3.96369 3.36646 5.11054C2.50828 6.25739 1.95572 7.60357 1.7607 9.02262C1.56567 10.4417 1.73458 11.887 2.25155 13.2229C2.76852 14.5587 3.61658 15.7412 4.71607 16.6593C5.81556 17.5773 7.13039 18.2009 8.53703 18.4712C9.94367 18.7416 11.396 18.65 12.7574 18.2049C14.1189 17.7599 15.345 16.976 16.3203 15.927C17.2957 14.878 17.9884 13.5983 18.3333 12.2081C18.3753 12.0489 18.3693 11.8808 18.3159 11.7251C18.2625 11.5694 18.1642 11.433 18.0333 11.3331ZM10.1167 16.9081C8.71812 16.8982 7.35682 16.4563 6.21915 15.6428C5.08148 14.8294 4.22305 13.6842 3.76139 12.364C3.29974 11.0438 3.25744 9.61321 3.64027 8.26806C4.02311 6.9229 4.81237 5.72897 5.89999 4.84972V5.07472C5.9022 7.31512 6.79317 9.46313 8.37738 11.0473C9.96158 12.6315 12.1096 13.5225 14.35 13.5247C14.9382 13.5269 15.525 13.4654 16.1 13.3414C15.5249 14.4293 14.6637 15.3396 13.6093 15.974C12.5549 16.6084 11.3472 16.9429 10.1167 16.9414V16.9081Z" fill="#737373"/>
</g>
</svg>
