<svg width="20" height="21" viewBox="0 0 20 21" fill="none" xmlns="http://www.w3.org/2000/svg">
<g id="heroicons-mini/shield-exclamation">
<path id="Subtract" fill-rule="evenodd" clip-rule="evenodd" d="M10.3389 2.7373C10.1429 2.57455 9.85709 2.57455 9.66109 2.7373C7.72231 4.34716 5.2685 5.35821 2.58337 5.48674C2.34202 5.49829 2.13593 5.67262 2.10424 5.91217C2.03548 6.43198 2 6.9623 2 7.5009C2 12.6634 5.26004 17.0646 9.83378 18.7579C9.94102 18.7976 10.0593 18.7976 10.1665 18.7579C14.7401 17.0645 18 12.6634 18 7.50102C18 6.96237 17.9645 6.43202 17.8957 5.91216C17.8641 5.67262 17.658 5.49829 17.4166 5.48674C14.7315 5.35821 12.2777 4.34716 10.3389 2.7373ZM10 6.50067C10.4142 6.50067 10.75 6.83646 10.75 7.25067V10.7507C10.75 11.1649 10.4142 11.5007 10 11.5007C9.58579 11.5007 9.25 11.1649 9.25 10.7507L9.25 7.25067C9.25 6.83646 9.58579 6.50067 10 6.50067ZM10 15.5007C10.5523 15.5007 11 15.053 11 14.5007C11 13.9484 10.5523 13.5007 10 13.5007C9.44772 13.5007 9 13.9484 9 14.5007C9 15.053 9.44772 15.5007 10 15.5007Z" fill="#FAFAFA"/>
</g>
</svg>
