<svg width="20" height="21" viewBox="0 0 20 21" fill="none" xmlns="http://www.w3.org/2000/svg">
<g id="Tokens/u:sun">
<path id="Vector" d="M4.69996 14.666L4.10829 15.2577C3.95308 15.4138 3.86597 15.625 3.86597 15.8452C3.86597 16.0653 3.95308 16.2765 4.10829 16.4327C4.26443 16.5879 4.47564 16.675 4.69579 16.675C4.91595 16.675 5.12716 16.5879 5.28329 16.4327L5.87496 15.841C6.01148 15.6816 6.08282 15.4765 6.07472 15.2668C6.06662 15.0571 5.97967 14.8581 5.83126 14.7097C5.68285 14.5613 5.4839 14.4744 5.27417 14.4663C5.06444 14.4582 4.85938 14.5295 4.69996 14.666ZM4.16663 10.4993C4.16663 10.2783 4.07883 10.0664 3.92255 9.91009C3.76627 9.75381 3.55431 9.66602 3.33329 9.66602H2.49996C2.27895 9.66602 2.06698 9.75381 1.9107 9.91009C1.75442 10.0664 1.66663 10.2783 1.66663 10.4993C1.66663 10.7204 1.75442 10.9323 1.9107 11.0886C2.06698 11.2449 2.27895 11.3327 2.49996 11.3327H3.33329C3.55431 11.3327 3.76627 11.2449 3.92255 11.0886C4.07883 10.9323 4.16663 10.7204 4.16663 10.4993ZM9.99996 4.66602C10.221 4.66602 10.4329 4.57822 10.5892 4.42194C10.7455 4.26566 10.8333 4.0537 10.8333 3.83268V2.99935C10.8333 2.77834 10.7455 2.56637 10.5892 2.41009C10.4329 2.25381 10.221 2.16602 9.99996 2.16602C9.77895 2.16602 9.56698 2.25381 9.4107 2.41009C9.25442 2.56637 9.16663 2.77834 9.16663 2.99935V3.83268C9.16663 4.0537 9.25442 4.26566 9.4107 4.42194C9.56698 4.57822 9.77895 4.66602 9.99996 4.66602ZM4.69996 6.37435C4.85518 6.5283 5.06468 6.6151 5.28329 6.61602C5.39297 6.61665 5.50168 6.59563 5.60321 6.55416C5.70475 6.51269 5.79709 6.45158 5.87496 6.37435C6.03017 6.21821 6.11729 6.007 6.11729 5.78685C6.11729 5.56669 6.03017 5.35548 5.87496 5.19935L5.28329 4.60768C5.12388 4.47116 4.91881 4.39982 4.70908 4.40792C4.49935 4.41602 4.3004 4.50297 4.15199 4.65138C4.00358 4.79979 3.91663 4.99874 3.90853 5.20847C3.90043 5.4182 3.97177 5.62326 4.10829 5.78268L4.69996 6.37435ZM14.7 6.61602C14.9186 6.6151 15.1281 6.5283 15.2833 6.37435L15.875 5.78268C15.9622 5.70798 16.033 5.61604 16.0831 5.51266C16.1331 5.40927 16.1612 5.29666 16.1656 5.18189C16.1701 5.06713 16.1507 4.95268 16.1088 4.84575C16.0669 4.73881 16.0034 4.64169 15.9222 4.56047C15.841 4.47926 15.7438 4.41571 15.6369 4.37382C15.53 4.33192 15.4155 4.31258 15.3007 4.31702C15.186 4.32145 15.0734 4.34956 14.97 4.39958C14.8666 4.4496 14.7747 4.52045 14.7 4.60768L14.1666 5.19935C14.0114 5.35548 13.9243 5.56669 13.9243 5.78685C13.9243 6.007 14.0114 6.21821 14.1666 6.37435C14.3135 6.52048 14.5096 6.60664 14.7166 6.61602H14.7ZM17.5 9.66602H16.6666C16.4456 9.66602 16.2337 9.75381 16.0774 9.91009C15.9211 10.0664 15.8333 10.2783 15.8333 10.4993C15.8333 10.7204 15.9211 10.9323 16.0774 11.0886C16.2337 11.2449 16.4456 11.3327 16.6666 11.3327H17.5C17.721 11.3327 17.9329 11.2449 18.0892 11.0886C18.2455 10.9323 18.3333 10.7204 18.3333 10.4993C18.3333 10.2783 18.2455 10.0664 18.0892 9.91009C17.9329 9.75381 17.721 9.66602 17.5 9.66602ZM9.99996 16.3327C9.77895 16.3327 9.56698 16.4205 9.4107 16.5768C9.25442 16.733 9.16663 16.945 9.16663 17.166V17.9993C9.16663 18.2204 9.25442 18.4323 9.4107 18.5886C9.56698 18.7449 9.77895 18.8327 9.99996 18.8327C10.221 18.8327 10.4329 18.7449 10.5892 18.5886C10.7455 18.4323 10.8333 18.2204 10.8333 17.9993V17.166C10.8333 16.945 10.7455 16.733 10.5892 16.5768C10.4329 16.4205 10.221 16.3327 9.99996 16.3327ZM15.3 14.666C15.1416 14.578 14.9589 14.5439 14.7795 14.569C14.6001 14.594 14.4337 14.6769 14.3056 14.805C14.1775 14.9331 14.0947 15.0995 14.0696 15.2789C14.0445 15.4583 14.0786 15.641 14.1666 15.7993L14.7583 16.391C14.9144 16.5462 15.1256 16.6333 15.3458 16.6333C15.5659 16.6333 15.7772 16.5462 15.9333 16.391C16.0885 16.2349 16.1756 16.0237 16.1756 15.8035C16.1756 15.5834 16.0885 15.3722 15.9333 15.216L15.3 14.666ZM9.99996 5.91602C9.09346 5.91602 8.20732 6.18482 7.4536 6.68845C6.69987 7.19207 6.11241 7.90789 5.76551 8.74538C5.41861 9.58288 5.32784 10.5044 5.50469 11.3935C5.68154 12.2826 6.11806 13.0993 6.75905 13.7403C7.40004 14.3812 8.21672 14.8178 9.1058 14.9946C9.99487 15.1715 10.9164 15.0807 11.7539 14.7338C12.5914 14.3869 13.3072 13.7994 13.8109 13.0457C14.3145 12.292 14.5833 11.4058 14.5833 10.4993C14.5811 9.28445 14.0975 8.11994 13.2384 7.26088C12.3794 6.40181 11.2149 5.91822 9.99996 5.91602ZM9.99996 13.416C9.4231 13.416 8.85919 13.245 8.37955 12.9245C7.8999 12.604 7.52607 12.1485 7.30531 11.6155C7.08456 11.0826 7.0268 10.4961 7.13934 9.93034C7.25188 9.36456 7.52966 8.84486 7.93756 8.43695C8.34547 8.02905 8.86517 7.75127 9.43095 7.63873C9.99672 7.52619 10.5832 7.58394 11.1161 7.8047C11.6491 8.02546 12.1046 8.39929 12.4251 8.87894C12.7456 9.35858 12.9166 9.92249 12.9166 10.4993C12.9166 11.2729 12.6093 12.0148 12.0624 12.5617C11.5154 13.1087 10.7735 13.416 9.99996 13.416Z" fill="#888891"/>
</g>
</svg>
